<svg width="39" height="39" viewBox="0 0 39 39" fill="none" xmlns="http://www.w3.org/2000/svg">
<path d="M14.625 34.126H24.375" stroke="black" stroke-width="1.5" stroke-linecap="round" stroke-linejoin="round"/>
<path d="M29.25 15.8452V18.2827C29.25 23.6452 24.8625 28.0327 19.5 28.0327C14.1375 28.0327 9.75 23.6452 9.75 18.2827V15.8452" stroke="black" stroke-width="1.5" stroke-linecap="round" stroke-linejoin="round"/>
<path d="M19.5 28.0337V34.1274" stroke="black" stroke-width="1.5" stroke-linecap="round" stroke-linejoin="round"/>
<path d="M19.5 24.377C18.6957 24.3751 17.8999 24.2116 17.16 23.8963C16.42 23.5809 15.751 23.1201 15.1925 22.5413C14.0493 21.3883 13.4074 19.8307 13.4063 18.2071V9.752C13.4032 8.95088 13.5587 8.15707 13.8638 7.41633C14.1689 6.67559 14.6177 6.00258 15.1842 5.4361C15.7506 4.86963 16.4236 4.42088 17.1644 4.11575C17.9051 3.81061 18.6989 3.65513 19.5 3.65825C22.9171 3.65825 25.5938 6.33493 25.5938 9.752V18.2071C25.5938 21.6089 22.86 24.377 19.5 24.377Z" fill="black"/>
</svg>
