<svg width="68" height="25" viewBox="0 0 68 25" fill="none" xmlns="http://www.w3.org/2000/svg">
<rect width="68" height="25" fill="#C4C4C4"/>
<path d="M15.7852 13.6318H13.2285L13.2148 12.2236H15.3613C15.7396 12.2236 16.0495 12.1758 16.291 12.0801C16.5326 11.9798 16.7126 11.8363 16.8311 11.6494C16.9541 11.458 17.0156 11.2256 17.0156 10.9521C17.0156 10.6423 16.9564 10.3916 16.8379 10.2002C16.724 10.0088 16.5439 9.86979 16.2979 9.7832C16.0563 9.69661 15.7441 9.65332 15.3613 9.65332H13.9395V18H11.8887V8.04688H15.3613C15.9401 8.04688 16.4574 8.10156 16.9131 8.21094C17.3734 8.32031 17.763 8.48665 18.082 8.70996C18.401 8.93327 18.6449 9.21582 18.8135 9.55762C18.9821 9.89486 19.0664 10.2959 19.0664 10.7607C19.0664 11.1709 18.973 11.5492 18.7861 11.8955C18.6038 12.2419 18.3145 12.5244 17.918 12.7432C17.526 12.9619 17.0133 13.0827 16.3799 13.1055L15.7852 13.6318ZM15.6963 18H12.668L13.4678 16.4004H15.6963C16.0563 16.4004 16.3503 16.3434 16.5781 16.2295C16.806 16.111 16.9746 15.9515 17.084 15.751C17.1934 15.5505 17.248 15.3203 17.248 15.0605C17.248 14.7689 17.1979 14.516 17.0977 14.3018C17.002 14.0876 16.847 13.9235 16.6328 13.8096C16.4186 13.6911 16.1361 13.6318 15.7852 13.6318H13.8096L13.8232 12.2236H16.2842L16.7559 12.7773C17.362 12.7682 17.8496 12.8753 18.2188 13.0986C18.5924 13.3174 18.8636 13.6022 19.0322 13.9531C19.2054 14.304 19.292 14.68 19.292 15.0811C19.292 15.7191 19.153 16.2568 18.875 16.6943C18.597 17.1273 18.1891 17.4531 17.6514 17.6719C17.1182 17.8906 16.4665 18 15.6963 18ZM25.582 16.2295V10.6035H27.5508V18H25.6982L25.582 16.2295ZM25.8008 14.7119L26.3818 14.6982C26.3818 15.1904 26.3249 15.6484 26.2109 16.0723C26.097 16.4915 25.9261 16.8561 25.6982 17.166C25.4704 17.4714 25.1833 17.7106 24.8369 17.8838C24.4906 18.0524 24.0827 18.1367 23.6133 18.1367C23.2533 18.1367 22.9206 18.0866 22.6152 17.9863C22.3145 17.8815 22.0547 17.7197 21.8359 17.501C21.6217 17.2777 21.4531 16.9928 21.3301 16.6465C21.2116 16.2956 21.1523 15.874 21.1523 15.3818V10.6035H23.1211V15.3955C23.1211 15.6143 23.1462 15.7988 23.1963 15.9492C23.251 16.0996 23.3262 16.2227 23.4219 16.3184C23.5176 16.4141 23.6292 16.4824 23.7568 16.5234C23.889 16.5645 24.0348 16.585 24.1943 16.585C24.5999 16.585 24.9189 16.5029 25.1514 16.3389C25.3883 16.1748 25.5547 15.9515 25.6504 15.6689C25.7507 15.3818 25.8008 15.0628 25.8008 14.7119ZM33.1777 10.6035V11.998H28.8711V10.6035H33.1777ZM29.9375 8.77832H31.9062V15.7715C31.9062 15.9857 31.9336 16.1497 31.9883 16.2637C32.0475 16.3776 32.1341 16.4574 32.248 16.5029C32.362 16.5439 32.5055 16.5645 32.6787 16.5645C32.8018 16.5645 32.9111 16.5599 33.0068 16.5508C33.1071 16.5371 33.1914 16.5234 33.2598 16.5098L33.2666 17.959C33.098 18.0137 32.9157 18.057 32.7197 18.0889C32.5238 18.1208 32.3073 18.1367 32.0703 18.1367C31.6374 18.1367 31.2591 18.0661 30.9355 17.9248C30.6165 17.779 30.3704 17.5465 30.1973 17.2275C30.0241 16.9085 29.9375 16.4893 29.9375 15.9697V8.77832ZM38.4219 10.6035V11.998H34.1152V10.6035H38.4219ZM35.1816 8.77832H37.1504V15.7715C37.1504 15.9857 37.1777 16.1497 37.2324 16.2637C37.2917 16.3776 37.3783 16.4574 37.4922 16.5029C37.6061 16.5439 37.7497 16.5645 37.9229 16.5645C38.0459 16.5645 38.1553 16.5599 38.251 16.5508C38.3512 16.5371 38.4355 16.5234 38.5039 16.5098L38.5107 17.959C38.3421 18.0137 38.1598 18.057 37.9639 18.0889C37.7679 18.1208 37.5514 18.1367 37.3145 18.1367C36.8815 18.1367 36.5033 18.0661 36.1797 17.9248C35.8607 17.779 35.6146 17.5465 35.4414 17.2275C35.2682 16.9085 35.1816 16.4893 35.1816 15.9697V8.77832ZM39.5508 14.377V14.2334C39.5508 13.6911 39.6283 13.1921 39.7832 12.7363C39.9382 12.276 40.1637 11.8773 40.46 11.54C40.7562 11.2028 41.1208 10.9408 41.5537 10.7539C41.9867 10.5625 42.4834 10.4668 43.0439 10.4668C43.6045 10.4668 44.1035 10.5625 44.541 10.7539C44.9785 10.9408 45.3454 11.2028 45.6416 11.54C45.9424 11.8773 46.1702 12.276 46.3252 12.7363C46.4801 13.1921 46.5576 13.6911 46.5576 14.2334V14.377C46.5576 14.9147 46.4801 15.4137 46.3252 15.874C46.1702 16.3298 45.9424 16.7285 45.6416 17.0703C45.3454 17.4076 44.9808 17.6696 44.5479 17.8564C44.1149 18.0433 43.6182 18.1367 43.0576 18.1367C42.4971 18.1367 41.998 18.0433 41.5605 17.8564C41.1276 17.6696 40.7607 17.4076 40.46 17.0703C40.1637 16.7285 39.9382 16.3298 39.7832 15.874C39.6283 15.4137 39.5508 14.9147 39.5508 14.377ZM41.5195 14.2334V14.377C41.5195 14.6868 41.5469 14.9762 41.6016 15.2451C41.6562 15.514 41.7428 15.751 41.8613 15.9561C41.9844 16.1566 42.1439 16.3138 42.3398 16.4277C42.5358 16.5417 42.7751 16.5986 43.0576 16.5986C43.3311 16.5986 43.5658 16.5417 43.7617 16.4277C43.9577 16.3138 44.1149 16.1566 44.2334 15.9561C44.3519 15.751 44.4385 15.514 44.4932 15.2451C44.5524 14.9762 44.582 14.6868 44.582 14.377V14.2334C44.582 13.9326 44.5524 13.6501 44.4932 13.3857C44.4385 13.1169 44.3496 12.8799 44.2266 12.6748C44.1081 12.4652 43.9508 12.3011 43.7549 12.1826C43.5589 12.0641 43.3219 12.0049 43.0439 12.0049C42.766 12.0049 42.529 12.0641 42.333 12.1826C42.1416 12.3011 41.9844 12.4652 41.8613 12.6748C41.7428 12.8799 41.6562 13.1169 41.6016 13.3857C41.5469 13.6501 41.5195 13.9326 41.5195 14.2334ZM50.1953 12.1826V18H48.2266V10.6035H50.0723L50.1953 12.1826ZM49.9082 14.042H49.375C49.375 13.4951 49.4456 13.0029 49.5869 12.5654C49.7282 12.1234 49.9264 11.7474 50.1816 11.4375C50.4368 11.123 50.7399 10.8838 51.0908 10.7197C51.4463 10.5511 51.8428 10.4668 52.2803 10.4668C52.6266 10.4668 52.9434 10.5169 53.2305 10.6172C53.5176 10.7174 53.7637 10.877 53.9688 11.0957C54.1784 11.3145 54.3379 11.6038 54.4473 11.9639C54.5612 12.3239 54.6182 12.7637 54.6182 13.2832V18H52.6357V13.2764C52.6357 12.9482 52.5902 12.693 52.499 12.5107C52.4079 12.3285 52.2734 12.2008 52.0957 12.1279C51.9225 12.0505 51.7083 12.0117 51.4531 12.0117C51.1888 12.0117 50.9587 12.0641 50.7627 12.1689C50.5713 12.2738 50.4118 12.4196 50.2842 12.6064C50.1611 12.7887 50.0677 13.0029 50.0039 13.249C49.9401 13.4951 49.9082 13.7594 49.9082 14.042Z" fill="black"/>
</svg>
