<svg width="24" height="24" viewBox="0 0 24 24" fill="currentColor" xmlns="http://www.w3.org/2000/svg">
<path d="M12.7498 1.95466V8.81294C12.7498 8.86267 12.7696 8.91036 12.8047 8.94552C12.8399 8.98069 12.8876 9.00044 12.9373 9.00044H19.7956C19.8141 9.00046 19.8322 8.99498 19.8476 8.98471C19.8631 8.97444 19.8751 8.95983 19.8822 8.94273C19.8893 8.92563 19.8912 8.9068 19.8877 8.88863C19.8841 8.87045 19.8752 8.85373 19.8622 8.8406L12.9097 1.8881C12.8965 1.87504 12.8798 1.86617 12.8616 1.8626C12.8435 1.85903 12.8246 1.86092 12.8075 1.86804C12.7904 1.87517 12.7758 1.88719 12.7655 1.90261C12.7553 1.91803 12.7498 1.93614 12.7498 1.95466Z"/>
<path d="M11.6249 10.5C11.5254 10.5 11.43 10.4605 11.3597 10.3902C11.2894 10.3198 11.2499 10.2245 11.2499 10.125V1.5H4.31238C4.16319 1.5 4.02012 1.55926 3.91463 1.66475C3.80914 1.77024 3.74988 1.91332 3.74988 2.0625V21.9375C3.74988 22.0867 3.80914 22.2297 3.91463 22.3352C4.02012 22.4407 4.16319 22.5 4.31238 22.5H19.6874C19.8366 22.5 19.9796 22.4407 20.0851 22.3352C20.1906 22.2297 20.2499 22.0867 20.2499 21.9375V10.5H11.6249ZM16.4999 18H7.49988V16.5H16.4999V18ZM16.4999 14.25H7.49988V12.75H16.4999V14.25Z" />
</svg>
