<svg width="17" height="24" viewBox="0 0 17 24" fill="none" xmlns="http://www.w3.org/2000/svg">
<path d="M1 11C0.447715 11 -2.41411e-08 11.4477 0 12C2.41411e-08 12.5523 0.447715 13 1 13L1 11ZM14.7071 12.7071C15.0976 12.3166 15.0976 11.6834 14.7071 11.2929L8.34315 4.92893C7.95262 4.53841 7.31946 4.53841 6.92893 4.92893C6.53841 5.31946 6.53841 5.95262 6.92893 6.34315L12.5858 12L6.92893 17.6569C6.53841 18.0474 6.53841 18.6805 6.92893 19.0711C7.31946 19.4616 7.95262 19.4616 8.34315 19.0711L14.7071 12.7071ZM1 13L14 13L14 11L1 11L1 13Z" fill="white"/>
<line x1="16" y1="23" x2="16" y2="1" stroke="white" stroke-width="2" stroke-linecap="round"/>
</svg>
