<svg width="40" height="42" viewBox="0 0 40 42" fill="none" xmlns="http://www.w3.org/2000/svg">
<rect x="4" width="36" height="36" rx="1" fill="black"/>
<rect x="0.5" y="6.5" width="35" height="35" rx="0.5" fill="black" stroke="#DEDEDE"/>
<path d="M8.80633 21.584C9.34524 19.4983 10.5649 17.6709 12.2574 16.4131C13.9499 15.1554 16.0105 14.5451 18.0883 14.6863C20.166 14.8276 22.1323 15.7115 23.652 17.1876C25.1717 18.6637 26.1509 20.6406 26.4227 22.7814" stroke="#DEDEDE" stroke-width="2.08134" stroke-linejoin="round"/>
<path d="M8.49916 21.6659L7.49648 21.9445C7.64026 22.5009 8.20573 22.8273 8.7595 22.6734L8.49916 21.6659ZM6.3318 17.4368L7.49648 21.9445L9.50184 21.3872L8.33715 16.8796L6.3318 17.4368ZM8.7595 22.6734L13.1062 21.4656L12.5855 19.4505L8.23882 20.6583L8.7595 22.6734Z" fill="#DEDEDE"/>
<path d="M26.1927 26.415C25.6538 28.5007 24.4342 30.3282 22.7417 31.5859C21.0492 32.8437 18.9885 33.4539 16.9107 33.3127C14.833 33.1715 12.8668 32.2875 11.347 30.8114C9.82731 29.3353 8.84814 27.3584 8.57636 25.2176" stroke="#DEDEDE" stroke-width="2.08134" stroke-linejoin="round"/>
<path d="M26.4999 26.3312L27.5025 26.0526C27.3588 25.4961 26.7933 25.1698 26.2395 25.3236L26.4999 26.3312ZM28.6672 30.5602L27.5025 26.0526L25.4972 26.6098L26.6619 31.1175L28.6672 30.5602ZM26.2395 25.3236L21.8929 26.5315L22.4135 28.5466L26.7602 27.3388L26.2395 25.3236Z" fill="#DEDEDE"/>
</svg>
