<svg width="68" height="57" viewBox="0 0 68 57" fill="none" xmlns="http://www.w3.org/2000/svg">
<path d="M7.52637 9.10059V10.7002H2.33105V9.10059H7.52637ZM2.93945 5.04688V15H0.888672V5.04688H2.93945ZM8.98926 5.04688V15H6.94531V5.04688H8.98926ZM14.5547 15.1367C13.9805 15.1367 13.4655 15.0456 13.0098 14.8633C12.554 14.6764 12.1667 14.4189 11.8477 14.0908C11.5332 13.7627 11.2917 13.3822 11.123 12.9492C10.9544 12.5117 10.8701 12.0469 10.8701 11.5547V11.2812C10.8701 10.7207 10.9499 10.208 11.1094 9.74316C11.2689 9.27832 11.4967 8.875 11.793 8.5332C12.0938 8.19141 12.4583 7.92936 12.8867 7.74707C13.3151 7.56022 13.7982 7.4668 14.3359 7.4668C14.86 7.4668 15.3249 7.55339 15.7305 7.72656C16.1361 7.89974 16.4756 8.14583 16.749 8.46484C17.027 8.78385 17.2367 9.16667 17.3779 9.61328C17.5192 10.0553 17.5898 10.5475 17.5898 11.0898V11.9102H11.7109V10.5977H15.6553V10.4473C15.6553 10.1738 15.6051 9.93001 15.5049 9.71582C15.4092 9.49707 15.2633 9.32389 15.0674 9.19629C14.8714 9.06868 14.6208 9.00488 14.3154 9.00488C14.0557 9.00488 13.8324 9.06185 13.6455 9.17578C13.4587 9.28971 13.306 9.44922 13.1875 9.6543C13.0736 9.85938 12.987 10.1009 12.9277 10.3789C12.873 10.6523 12.8457 10.9531 12.8457 11.2812V11.5547C12.8457 11.8509 12.8867 12.1243 12.9688 12.375C13.0553 12.6257 13.1761 12.8421 13.3311 13.0244C13.4906 13.2067 13.682 13.348 13.9053 13.4482C14.1331 13.5485 14.3906 13.5986 14.6777 13.5986C15.0332 13.5986 15.3636 13.5303 15.6689 13.3936C15.9788 13.2523 16.2454 13.0404 16.4688 12.7578L17.4258 13.7969C17.2708 14.0202 17.0589 14.2344 16.79 14.4395C16.5257 14.6445 16.2067 14.8132 15.833 14.9453C15.4593 15.0729 15.0332 15.1367 14.5547 15.1367ZM23.2031 13.332V10.0371C23.2031 9.80013 23.1644 9.59733 23.0869 9.42871C23.0094 9.25553 22.8887 9.12109 22.7246 9.02539C22.5651 8.92969 22.3577 8.88184 22.1025 8.88184C21.8838 8.88184 21.6947 8.92057 21.5352 8.99805C21.3757 9.07096 21.2526 9.17806 21.166 9.31934C21.0794 9.45605 21.0361 9.61784 21.0361 9.80469H19.0674C19.0674 9.49023 19.1403 9.19173 19.2861 8.90918C19.432 8.62663 19.6439 8.37826 19.9219 8.16406C20.1999 7.94531 20.5303 7.77441 20.9131 7.65137C21.3005 7.52832 21.7334 7.4668 22.2119 7.4668C22.7861 7.4668 23.2965 7.5625 23.7432 7.75391C24.1898 7.94531 24.5407 8.23242 24.7959 8.61523C25.0557 8.99805 25.1855 9.47656 25.1855 10.0508V13.2158C25.1855 13.6214 25.2106 13.9541 25.2607 14.2139C25.3109 14.4691 25.3838 14.6924 25.4795 14.8838V15H23.4902C23.3945 14.7995 23.3216 14.5488 23.2715 14.248C23.2259 13.9427 23.2031 13.6374 23.2031 13.332ZM23.4629 10.4951L23.4766 11.6094H22.376C22.1162 11.6094 21.8906 11.639 21.6992 11.6982C21.5078 11.7575 21.3506 11.8418 21.2275 11.9512C21.1045 12.056 21.0133 12.179 20.9541 12.3203C20.8994 12.4616 20.8721 12.6165 20.8721 12.7852C20.8721 12.9538 20.9108 13.1064 20.9883 13.2432C21.0658 13.3753 21.1774 13.4801 21.3232 13.5576C21.4691 13.6305 21.64 13.667 21.8359 13.667C22.1322 13.667 22.3896 13.6077 22.6084 13.4893C22.8271 13.3708 22.9958 13.2249 23.1143 13.0518C23.2373 12.8786 23.3011 12.7145 23.3057 12.5596L23.8252 13.3936C23.7523 13.5804 23.652 13.7741 23.5244 13.9746C23.4014 14.1751 23.2441 14.3643 23.0527 14.542C22.8613 14.7152 22.6312 14.8587 22.3623 14.9727C22.0934 15.082 21.7744 15.1367 21.4053 15.1367C20.9359 15.1367 20.5098 15.0433 20.127 14.8564C19.7487 14.665 19.4479 14.403 19.2246 14.0703C19.0059 13.7331 18.8965 13.3503 18.8965 12.9219C18.8965 12.5345 18.9694 12.1904 19.1152 11.8896C19.2611 11.5889 19.4753 11.3359 19.7578 11.1309C20.0449 10.9212 20.4027 10.764 20.8311 10.6592C21.2594 10.5498 21.7562 10.4951 22.3213 10.4951H23.4629ZM31.5713 13.3867V4.5H33.5537V15H31.7695L31.5713 13.3867ZM26.8955 11.3906V11.2471C26.8955 10.682 26.9593 10.1693 27.0869 9.70898C27.2145 9.24414 27.4014 8.84538 27.6475 8.5127C27.8936 8.18001 28.1966 7.92253 28.5566 7.74023C28.9167 7.55794 29.3268 7.4668 29.7871 7.4668C30.2201 7.4668 30.5983 7.55794 30.9219 7.74023C31.25 7.92253 31.528 8.18229 31.7559 8.51953C31.9883 8.85221 32.1751 9.24642 32.3164 9.70215C32.4577 10.1533 32.5602 10.6478 32.624 11.1855V11.5C32.5602 12.015 32.4577 12.4935 32.3164 12.9355C32.1751 13.3776 31.9883 13.765 31.7559 14.0977C31.528 14.4258 31.25 14.681 30.9219 14.8633C30.5938 15.0456 30.2109 15.1367 29.7734 15.1367C29.3132 15.1367 28.903 15.0433 28.543 14.8564C28.1875 14.6696 27.8867 14.4076 27.6406 14.0703C27.3991 13.7331 27.2145 13.3366 27.0869 12.8809C26.9593 12.4251 26.8955 11.9284 26.8955 11.3906ZM28.8643 11.2471V11.3906C28.8643 11.696 28.887 11.9808 28.9326 12.2451C28.9827 12.5094 29.0625 12.7441 29.1719 12.9492C29.2858 13.1497 29.4316 13.307 29.6094 13.4209C29.7917 13.5303 30.0127 13.585 30.2725 13.585C30.6097 13.585 30.8877 13.5098 31.1064 13.3594C31.3252 13.2044 31.4915 12.9925 31.6055 12.7236C31.724 12.4548 31.7923 12.1449 31.8105 11.7939V10.8984C31.7969 10.6113 31.7559 10.3538 31.6875 10.126C31.6237 9.89355 31.528 9.69531 31.4004 9.53125C31.2773 9.36719 31.1224 9.23958 30.9355 9.14844C30.7533 9.05729 30.5368 9.01172 30.2861 9.01172C30.0309 9.01172 29.8122 9.07096 29.6299 9.18945C29.4476 9.30339 29.2995 9.46061 29.1855 9.66113C29.0762 9.86165 28.9941 10.0986 28.9395 10.3721C28.8893 10.641 28.8643 10.9326 28.8643 11.2471ZM37.6699 7.60352V15H35.6943V7.60352H37.6699ZM35.5713 5.67578C35.5713 5.38867 35.6715 5.15169 35.8721 4.96484C36.0726 4.77799 36.3415 4.68457 36.6787 4.68457C37.0114 4.68457 37.278 4.77799 37.4785 4.96484C37.6836 5.15169 37.7861 5.38867 37.7861 5.67578C37.7861 5.96289 37.6836 6.19987 37.4785 6.38672C37.278 6.57357 37.0114 6.66699 36.6787 6.66699C36.3415 6.66699 36.0726 6.57357 35.8721 6.38672C35.6715 6.19987 35.5713 5.96289 35.5713 5.67578ZM41.7246 9.18262V15H39.7559V7.60352H41.6016L41.7246 9.18262ZM41.4375 11.042H40.9043C40.9043 10.4951 40.9749 10.0029 41.1162 9.56543C41.2575 9.12337 41.4557 8.7474 41.7109 8.4375C41.9661 8.12305 42.2692 7.88379 42.6201 7.71973C42.9756 7.55111 43.3721 7.4668 43.8096 7.4668C44.1559 7.4668 44.4727 7.51693 44.7598 7.61719C45.0469 7.71745 45.293 7.87695 45.498 8.0957C45.7077 8.31445 45.8672 8.60384 45.9766 8.96387C46.0905 9.32389 46.1475 9.76367 46.1475 10.2832V15H44.165V10.2764C44.165 9.94824 44.1195 9.69303 44.0283 9.51074C43.9372 9.32845 43.8027 9.20085 43.625 9.12793C43.4518 9.05046 43.2376 9.01172 42.9824 9.01172C42.7181 9.01172 42.488 9.06413 42.292 9.16895C42.1006 9.27376 41.9411 9.4196 41.8135 9.60645C41.6904 9.78874 41.597 10.0029 41.5332 10.249C41.4694 10.4951 41.4375 10.7594 41.4375 11.042ZM52.8271 7.60352H54.6113V14.7539C54.6113 15.4284 54.4609 16.0003 54.1602 16.4697C53.8639 16.9437 53.4492 17.3014 52.916 17.543C52.3828 17.7891 51.763 17.9121 51.0566 17.9121C50.7467 17.9121 50.4186 17.8711 50.0723 17.7891C49.7305 17.707 49.4023 17.5794 49.0879 17.4062C48.778 17.2331 48.5182 17.0143 48.3086 16.75L49.1768 15.5879C49.4046 15.8522 49.6689 16.0573 49.9697 16.2031C50.2705 16.3535 50.6032 16.4287 50.9678 16.4287C51.3232 16.4287 51.624 16.3626 51.8701 16.2305C52.1162 16.1029 52.3053 15.9137 52.4375 15.6631C52.5697 15.417 52.6357 15.1185 52.6357 14.7676V9.3125L52.8271 7.60352ZM47.8506 11.3906V11.2471C47.8506 10.682 47.9189 10.1693 48.0557 9.70898C48.1969 9.24414 48.3952 8.84538 48.6504 8.5127C48.9102 8.18001 49.2246 7.92253 49.5938 7.74023C49.9629 7.55794 50.3799 7.4668 50.8447 7.4668C51.3369 7.4668 51.7493 7.55794 52.082 7.74023C52.4147 7.92253 52.6882 8.18229 52.9023 8.51953C53.1165 8.85221 53.2829 9.24642 53.4014 9.70215C53.5244 10.1533 53.6201 10.6478 53.6885 11.1855V11.5C53.6201 12.015 53.5176 12.4935 53.3809 12.9355C53.2441 13.3776 53.0641 13.765 52.8408 14.0977C52.6175 14.4258 52.3395 14.681 52.0068 14.8633C51.6787 15.0456 51.2868 15.1367 50.8311 15.1367C50.3753 15.1367 49.9629 15.0433 49.5938 14.8564C49.2292 14.6696 48.917 14.4076 48.6572 14.0703C48.3975 13.7331 48.1969 13.3366 48.0557 12.8809C47.9189 12.4251 47.8506 11.9284 47.8506 11.3906ZM49.8193 11.2471V11.3906C49.8193 11.696 49.849 11.9808 49.9082 12.2451C49.9674 12.5094 50.0586 12.7441 50.1816 12.9492C50.3092 13.1497 50.4665 13.307 50.6533 13.4209C50.8447 13.5303 51.0703 13.585 51.3301 13.585C51.6901 13.585 51.984 13.5098 52.2119 13.3594C52.4398 13.2044 52.6107 12.9925 52.7246 12.7236C52.8385 12.4548 52.9046 12.1449 52.9229 11.7939V10.8984C52.9137 10.6113 52.875 10.3538 52.8066 10.126C52.7383 9.89355 52.6426 9.69531 52.5195 9.53125C52.3965 9.36719 52.237 9.23958 52.041 9.14844C51.8451 9.05729 51.6126 9.01172 51.3438 9.01172C51.084 9.01172 50.8584 9.07096 50.667 9.18945C50.4801 9.30339 50.3229 9.46061 50.1953 9.66113C50.0723 9.86165 49.9788 10.0986 49.915 10.3721C49.8512 10.641 49.8193 10.9326 49.8193 11.2471Z" fill="black"/>
<line y1="27" x2="68" y2="27" stroke="#C4C4C4" stroke-width="6"/>
<line y1="36" x2="68" y2="36" stroke="#C4C4C4" stroke-width="6"/>
<line y1="45" x2="68" y2="45" stroke="#C4C4C4" stroke-width="6"/>
<line y1="54" x2="68" y2="54" stroke="#C4C4C4" stroke-width="6"/>
</svg>
