<svg width="24" height="24" viewBox="0 0 24 24" fill="none" xmlns="http://www.w3.org/2000/svg">
<path d="M12 14.2503C13.2426 14.2503 14.25 13.243 14.25 12.0003C14.25 10.7577 13.2426 9.75034 12 9.75034C10.7574 9.75034 9.75 10.7577 9.75 12.0003C9.75 13.243 10.7574 14.2503 12 14.2503Z" fill="black"/>
<path d="M19.5 14.2503C20.7426 14.2503 21.75 13.243 21.75 12.0003C21.75 10.7577 20.7426 9.75034 19.5 9.75034C18.2574 9.75034 17.25 10.7577 17.25 12.0003C17.25 13.243 18.2574 14.2503 19.5 14.2503Z" fill="black"/>
<path d="M4.5 14.2503C5.74264 14.2503 6.75 13.243 6.75 12.0003C6.75 10.7577 5.74264 9.75034 4.5 9.75034C3.25736 9.75034 2.25 10.7577 2.25 12.0003C2.25 13.243 3.25736 14.2503 4.5 14.2503Z" fill="black"/>
</svg>
