<svg width="40" height="34" viewBox="0 0 40 34" fill="none" xmlns="http://www.w3.org/2000/svg">
<path d="M33.75 0.498535H6.25C4.7918 0.500127 3.39378 1.0801 2.36267 2.11121C1.33157 3.14231 0.751592 4.54033 0.75 5.99853V27.9985C0.751592 29.4567 1.33157 30.8548 2.36267 31.8859C3.39378 32.917 4.7918 33.4969 6.25 33.4985H33.75C35.2082 33.4969 36.6062 32.917 37.6373 31.8859C38.6684 30.8548 39.2484 29.4567 39.25 27.9985V5.99853C39.2484 4.54033 38.6684 3.14231 37.6373 2.11121C36.6062 1.0801 35.2082 0.500127 33.75 0.498535ZM26.875 5.99853C27.6908 5.99853 28.4884 6.24046 29.1667 6.69372C29.8451 7.14698 30.3738 7.79122 30.686 8.54496C30.9982 9.29871 31.0799 10.1281 30.9207 10.9283C30.7616 11.7285 30.3687 12.4635 29.7918 13.0403C29.2149 13.6172 28.4799 14.0101 27.6797 14.1693C26.8796 14.3284 26.0502 14.2467 25.2964 13.9345C24.5427 13.6223 23.8984 13.0936 23.4452 12.4153C22.9919 11.7369 22.75 10.9394 22.75 10.1235C22.7511 9.02986 23.1861 7.98131 23.9594 7.20797C24.7328 6.43463 25.7813 5.99967 26.875 5.99853ZM6.25 30.7485C5.52065 30.7485 4.82118 30.4588 4.30545 29.9431C3.78973 29.4273 3.5 28.7279 3.5 27.9985V22.1866L11.6503 14.942C12.4367 14.2446 13.4594 13.8733 14.51 13.9036C15.5606 13.9339 16.5602 14.3637 17.305 15.1053L22.8866 20.6749L12.813 30.7485H6.25ZM36.5 27.9985C36.5 28.7279 36.2103 29.4273 35.6945 29.9431C35.1788 30.4588 34.4793 30.7485 33.75 30.7485H16.7026L27.1371 20.314C27.8759 19.6857 28.8134 19.3396 29.7832 19.3371C30.753 19.3346 31.6923 19.6758 32.4343 20.3002L36.5 23.6879V27.9985Z" fill="black"/>
</svg>
