<svg width="29" height="11" viewBox="0 0 29 11" fill="none" xmlns="http://www.w3.org/2000/svg">
<path d="M7.28711 9.40039V11H2.27637V9.40039H7.28711ZM2.93945 1.04688V11H0.888672V1.04688H2.93945ZM10.918 3.60352V11H8.94238V3.60352H10.918ZM8.81934 1.67578C8.81934 1.38867 8.9196 1.15169 9.12012 0.964844C9.32064 0.777995 9.58952 0.68457 9.92676 0.68457C10.2594 0.68457 10.526 0.777995 10.7266 0.964844C10.9316 1.15169 11.0342 1.38867 11.0342 1.67578C11.0342 1.96289 10.9316 2.19987 10.7266 2.38672C10.526 2.57357 10.2594 2.66699 9.92676 2.66699C9.58952 2.66699 9.32064 2.57357 9.12012 2.38672C8.9196 2.19987 8.81934 1.96289 8.81934 1.67578ZM14.9727 5.18262V11H13.0039V3.60352H14.8496L14.9727 5.18262ZM14.6855 7.04199H14.1523C14.1523 6.49512 14.223 6.00293 14.3643 5.56543C14.5055 5.12337 14.7038 4.7474 14.959 4.4375C15.2142 4.12305 15.5173 3.88379 15.8682 3.71973C16.2236 3.55111 16.6201 3.4668 17.0576 3.4668C17.404 3.4668 17.7207 3.51693 18.0078 3.61719C18.2949 3.71745 18.541 3.87695 18.7461 4.0957C18.9557 4.31445 19.1152 4.60384 19.2246 4.96387C19.3385 5.32389 19.3955 5.76367 19.3955 6.2832V11H17.4131V6.27637C17.4131 5.94824 17.3675 5.69303 17.2764 5.51074C17.1852 5.32845 17.0508 5.20085 16.873 5.12793C16.6999 5.05046 16.4857 5.01172 16.2305 5.01172C15.9661 5.01172 15.736 5.06413 15.54 5.16895C15.3486 5.27376 15.1891 5.4196 15.0615 5.60645C14.9385 5.78874 14.8451 6.00293 14.7812 6.24902C14.7174 6.49512 14.6855 6.75944 14.6855 7.04199ZM23.3613 0.493164V11H21.3926V0.493164H23.3613ZM28.0234 3.60352L24.8105 7.26758L23.0879 9.01074L22.3701 7.58887L23.7373 5.85254L25.6582 3.60352H28.0234ZM25.9795 11L23.792 7.58203L25.1523 6.39258L28.249 11H25.9795Z" fill="black"/>
<path d="M0 12.3672H28.1055V13.0508H0V12.3672Z" fill="black"/>
</svg>
