<svg width="25" height="24" viewBox="0 0 25 24" fill="none" xmlns="http://www.w3.org/2000/svg">
<path d="M19.625 3H5.375C4.67941 3.00198 4.01288 3.27918 3.52103 3.77103C3.02918 4.26288 2.75198 4.92941 2.75 5.625V14.625C2.75198 15.3206 3.02918 15.9871 3.52103 16.479C4.01288 16.9708 4.67941 17.248 5.375 17.25H7.25V21L11.6431 17.3372C11.7106 17.2808 11.7957 17.25 11.8836 17.25H19.625C20.3206 17.248 20.9871 16.9708 21.479 16.479C21.9708 15.9871 22.248 15.3206 22.25 14.625V5.625C22.248 4.92941 21.9708 4.26288 21.479 3.77103C20.9871 3.27918 20.3206 3.00198 19.625 3V3Z" stroke="#333333" stroke-width="1.5" stroke-linejoin="round"/>
<path d="M8 11.625C8.82843 11.625 9.5 10.9534 9.5 10.125C9.5 9.29657 8.82843 8.625 8 8.625C7.17157 8.625 6.5 9.29657 6.5 10.125C6.5 10.9534 7.17157 11.625 8 11.625Z" fill="#333333"/>
<path d="M12.5 11.625C13.3284 11.625 14 10.9534 14 10.125C14 9.29657 13.3284 8.625 12.5 8.625C11.6716 8.625 11 9.29657 11 10.125C11 10.9534 11.6716 11.625 12.5 11.625Z" fill="#333333"/>
<path d="M17 11.625C17.8284 11.625 18.5 10.9534 18.5 10.125C18.5 9.29657 17.8284 8.625 17 8.625C16.1716 8.625 15.5 9.29657 15.5 10.125C15.5 10.9534 16.1716 11.625 17 11.625Z" fill="#333333"/>
</svg>
