<svg width="22" height="22" viewBox="0 0 22 22" fill="none" xmlns="http://www.w3.org/2000/svg">
<path d="M16.8561 1.68971C16.7168 1.55043 16.5514 1.43995 16.3694 1.36459C16.1874 1.28923 15.9923 1.25046 15.7953 1.25049H3.41656C3.13203 1.25043 2.85027 1.30642 2.58738 1.41528C2.32449 1.52414 2.08563 1.68373 1.88443 1.88492C1.68324 2.08612 1.52365 2.32498 1.41479 2.58787C1.30594 2.85076 1.24994 3.13252 1.25 3.41705V18.5839C1.24994 18.8685 1.30594 19.1502 1.41479 19.4131C1.52365 19.676 1.68324 19.9148 1.88443 20.116C2.08563 20.3172 2.32449 20.4768 2.58738 20.5857C2.85027 20.6945 3.13203 20.7505 3.41656 20.7505H18.5834C19.1575 20.7487 19.7076 20.5199 20.1135 20.114C20.5194 19.7081 20.7483 19.158 20.75 18.5839V6.20517C20.75 6.00818 20.7113 5.81311 20.6359 5.6311C20.5605 5.44909 20.4501 5.28371 20.3108 5.14439L16.8561 1.68971ZM11 18.5005C10.4067 18.5005 9.82663 18.3245 9.33329 17.9949C8.83994 17.6652 8.45542 17.1967 8.22836 16.6485C8.0013 16.1004 7.94189 15.4972 8.05764 14.9152C8.1734 14.3333 8.45912 13.7987 8.87868 13.3792C9.29823 12.9596 9.83278 12.6739 10.4147 12.5581C10.9967 12.4424 11.5999 12.5018 12.148 12.7288C12.6962 12.9559 13.1648 13.3404 13.4944 13.8338C13.824 14.3271 14 14.9071 14 15.5005C14.0005 15.8946 13.9232 16.2849 13.7726 16.6491C13.6221 17.0133 13.4011 17.3442 13.1224 17.6229C12.8437 17.9016 12.5128 18.1225 12.1486 18.2731C11.7844 18.4237 11.3941 18.501 11 18.5005V18.5005ZM13.25 8.00049H4.25C4.05109 8.00049 3.86032 7.92147 3.71967 7.78082C3.57902 7.64016 3.5 7.4494 3.5 7.25049V4.25049C3.5 4.05157 3.57902 3.86081 3.71967 3.72016C3.86032 3.57951 4.05109 3.50049 4.25 3.50049H13.25C13.4489 3.50049 13.6397 3.57951 13.7803 3.72016C13.921 3.86081 14 4.05157 14 4.25049V7.25049C14 7.4494 13.921 7.64016 13.7803 7.78082C13.6397 7.92147 13.4489 8.00049 13.25 8.00049Z" stroke="white" stroke-width="1.5" stroke-linecap="round" stroke-linejoin="round"/>
</svg>
