<svg width="24" height="24" viewBox="0 0 24 24" fill="none" xmlns="http://www.w3.org/2000/svg">
<path d="M17.8567 2.68971C17.7174 2.55043 17.552 2.43995 17.37 2.36459C17.188 2.28923 16.9929 2.25046 16.7959 2.25049H4.41717C4.13264 2.25043 3.85088 2.30642 3.58799 2.41528C3.3251 2.52414 3.08624 2.68373 2.88504 2.88492C2.68385 3.08612 2.52426 3.32498 2.4154 3.58787C2.30655 3.85076 2.25055 4.13252 2.25061 4.41705V19.5839C2.25055 19.8685 2.30655 20.1502 2.4154 20.4131C2.52426 20.676 2.68385 20.9148 2.88504 21.116C3.08624 21.3172 3.3251 21.4768 3.58799 21.5857C3.85088 21.6945 4.13264 21.7505 4.41717 21.7505H19.584C20.1581 21.7487 20.7082 21.5199 21.1141 21.114C21.5201 20.7081 21.7489 20.158 21.7506 19.5839V7.20517C21.7506 7.00818 21.7119 6.81311 21.6365 6.6311C21.5611 6.44909 21.4507 6.28371 21.3114 6.14439L17.8567 2.68971ZM12.0006 19.5005C11.4073 19.5005 10.8272 19.3245 10.3339 18.9949C9.84055 18.6652 9.45603 18.1967 9.22897 17.6485C9.00191 17.1004 8.9425 16.4972 9.05825 15.9152C9.17401 15.3333 9.45973 14.7987 9.87929 14.3792C10.2988 13.9596 10.8334 13.6739 11.4153 13.5581C11.9973 13.4424 12.6005 13.5018 13.1487 13.7288C13.6968 13.9559 14.1654 14.3404 14.495 14.8338C14.8247 15.3271 15.0006 15.9071 15.0006 16.5005C15.0011 16.8946 14.9238 17.2849 14.7732 17.6491C14.6227 18.0133 14.4017 18.3442 14.123 18.6229C13.8444 18.9016 13.5134 19.1225 13.1492 19.2731C12.785 19.4237 12.3947 19.501 12.0006 19.5005V19.5005ZM14.2506 9.00049H5.25061C5.0517 9.00049 4.86093 8.92147 4.72028 8.78082C4.57963 8.64016 4.50061 8.4494 4.50061 8.25049V5.25049C4.50061 5.05157 4.57963 4.86081 4.72028 4.72016C4.86093 4.57951 5.0517 4.50049 5.25061 4.50049H14.2506C14.4495 4.50049 14.6403 4.57951 14.7809 4.72016C14.9216 4.86081 15.0006 5.05157 15.0006 5.25049V8.25049C15.0006 8.4494 14.9216 8.64016 14.7809 8.78082C14.6403 8.92147 14.4495 9.00049 14.2506 9.00049Z" stroke="black" stroke-width="1.5" stroke-linecap="round" stroke-linejoin="round"/>
</svg>
