<svg width="24" height="24" viewBox="0 0 24 24" fill="none" xmlns="http://www.w3.org/2000/svg">
<path d="M12 14.2502C13.2426 14.2502 14.25 13.2428 14.25 12.0002C14.25 10.7575 13.2426 9.75017 12 9.75017C10.7574 9.75017 9.75 10.7575 9.75 12.0002C9.75 13.2428 10.7574 14.2502 12 14.2502Z" fill="black"/>
<path d="M12 21.7497C13.2426 21.7497 14.25 20.7424 14.25 19.4997C14.25 18.2571 13.2426 17.2497 12 17.2497C10.7574 17.2497 9.75 18.2571 9.75 19.4997C9.75 20.7424 10.7574 21.7497 12 21.7497Z" fill="black"/>
<path d="M12 6.7501C13.2426 6.7501 14.25 5.74274 14.25 4.5001C14.25 3.25746 13.2426 2.2501 12 2.2501C10.7574 2.2501 9.75 3.25746 9.75 4.5001C9.75 5.74274 10.7574 6.7501 12 6.7501Z" fill="black"/>
</svg>
