<svg width="41" height="41" viewBox="0 0 41 41" fill="none" xmlns="http://www.w3.org/2000/svg">
<path d="M37.1562 30.7823C36.7975 30.7821 36.4429 30.7065 36.1152 30.5605C36.039 30.5267 35.9663 30.4854 35.8982 30.4372L29.275 25.775C28.9391 25.5386 28.6649 25.2249 28.4757 24.8603C28.2864 24.4957 28.1876 24.091 28.1875 23.6802V17.322C28.1876 16.9112 28.2864 16.5065 28.4757 16.1419C28.6649 15.7773 28.9391 15.4636 29.275 15.2272L35.8982 10.565C35.9663 10.5168 36.039 10.4755 36.1152 10.4417C36.5054 10.2682 36.9327 10.195 37.3583 10.2287C37.7839 10.2624 38.1944 10.4018 38.5524 10.6345C38.9105 10.8671 39.2047 11.1855 39.4084 11.5608C39.6121 11.936 39.7187 12.3562 39.7187 12.7832V28.219C39.7187 28.8986 39.4488 29.5504 38.9682 30.031C38.4876 30.5116 37.8359 30.7815 37.1562 30.7815V30.7823Z" fill="black"/>
<path d="M21.4609 32.0312H6.72656C5.28283 32.0298 3.89866 31.4556 2.87778 30.4347C1.85691 29.4138 1.28273 28.0297 1.28125 26.5859V14.4141C1.28273 12.9703 1.85691 11.5862 2.87778 10.5653C3.89866 9.54441 5.28283 8.97023 6.72656 8.96875H21.4994C22.9328 8.97045 24.3071 9.54064 25.3207 10.5543C26.3344 11.5679 26.9045 12.9422 26.9062 14.3756V26.5859C26.9048 28.0297 26.3306 29.4138 25.3097 30.4347C24.2888 31.4556 22.9047 32.0298 21.4609 32.0312Z" fill="black"/>
</svg>
